# xmcd
# 
# Track frame offsets:
#     183
#     21980
#     39220
#     53100
#     67863
#     85495
#     103150
#     124743
#     144158
#     164113
#     183238
# 
# Disc length: 2733
# 
# Revision: 6
# Processed by: cddbd v1.5.2PL0 Copyright (c) Steve Scherf et al.
# Submitted via: BonkEnc v1.0.6
# 
DISCID=910aab0b
DTITLE=Chitãozinho and Xororó - Os Meninos do Brasil
DYEAR=0
DGENRE=Country
TTITLE0=Somos assim
TTITLE1=O rio
TTITLE2=Nascemos pra cantar
TTITLE3=Brigas
TTITLE4=São coisas da vida
TTITLE5=Amor incomum
TTITLE6=Os meninos do Brasil
TTITLE7=Terra amante
TTITLE8=Página virada
TTITLE9=No rancho fundo
TTITLE10=Recomeçar
EXTD=ID3G:   2
EXTT0=
EXTT1=
EXTT2=
EXTT3=
EXTT4=
EXTT5=
EXTT6=
EXTT7=
EXTT8=
EXTT9=
EXTT10=
PLAYORDER=
